<svg width="150" height="53" xmlns="http://www.w3.org/2000/svg" xmlns:xlink="http://www.w3.org/1999/xlink" overflow="hidden"><defs><clipPath id="clip0"><rect x="1147" y="1082" width="150" height="53"/></clipPath><clipPath id="clip1"><rect x="1148" y="1083" width="146" height="51"/></clipPath><clipPath id="clip2"><rect x="1148" y="1083" width="146" height="51"/></clipPath></defs><g clip-path="url(#clip0)" transform="translate(-1147 -1082)"><g clip-path="url(#clip1)"><g clip-path="url(#clip2)"><path d="M106.145 47.983 17.8553 47.983C8.03538 47.983 0 38.3624 0 26.6184L0 28.4927 0 29.3201C0 41.0741 8.03538 50.6847 17.8553 50.6847L106.135 50.6847C115.955 50.6847 123.99 41.0741 123.99 29.3201L123.99 28.4927 123.99 26.6184C124 38.3624 115.965 47.983 106.145 47.983Z" fill="#949699" transform="matrix(1.17742 0 0 1 1148 1083.16)"/><path d="M106.145 45.6302 17.8553 45.6302C8.03538 45.6302 0 36.0196 0 24.2756L0 25.791 0 26.4091 0 26.6184C0 38.3724 8.03538 47.983 17.8553 47.983L106.135 47.983C115.955 47.983 123.99 38.3724 123.99 26.6184L123.99 26.4091 123.99 25.791 123.99 24.2756C124 36.0196 115.965 45.6302 106.145 45.6302Z" fill="#A7A9AC" transform="matrix(1.17742 0 0 1 1148 1083.16)"/><path d="M106.145 0 17.8553 0C8.03538 0 0 9.61055 0 21.3645L0 23.4481 0 23.7073 0 24.2756C0 36.0296 8.03538 45.6401 17.8553 45.6401L106.135 45.6401C115.955 45.6401 123.99 36.0296 123.99 24.2756L123.99 23.7073 123.99 23.4481 123.99 21.3645C124 9.61055 115.965 0 106.145 0Z" fill="#D3D3D3" transform="matrix(1.17742 0 0 1 1148 1083.16)"/><path d="M20.7763 41.3533 103.214 41.3533C112.386 41.3533 119.893 33.8463 119.893 24.6744L119.893 22.4014C119.893 22.3714 119.893 22.3415 119.893 22.3216 119.843 31.4536 112.366 38.9207 103.214 38.9207L20.7763 38.9207C11.6343 38.9207 4.14729 31.4636 4.09744 22.3216 4.09744 22.3515 4.09744 22.3814 4.09744 22.4014L4.09744 24.6744C4.09744 33.8463 11.6044 41.3533 20.7763 41.3533Z" fill="#8B5E3C" transform="matrix(1.17742 0 0 1 1148 1083.16)"/><path d="M20.7763 38.9108 103.214 38.9108C112.356 38.9108 119.843 31.4536 119.893 22.3116 119.893 22.2817 119.893 22.2518 119.893 22.2319L119.893 20.6068C119.893 29.7787 112.386 37.2857 103.214 37.2857L20.7763 37.2857C11.6044 37.2857 4.09744 29.7787 4.09744 20.6068L4.09744 22.2319C4.09744 22.2618 4.09744 22.2917 4.09744 22.3116 4.14729 31.4536 11.6343 38.9108 20.7763 38.9108Z" fill="#916949" transform="matrix(1.17742 0 0 1 1148 1083.16)"/><path d="M20.7763 37.2857 103.214 37.2857C112.386 37.2857 119.893 29.7787 119.893 20.6068L119.893 19.9588 119.893 18.3338C119.893 9.16192 112.386 1.65493 103.214 1.65493L20.7763 1.65493C11.6044 1.65493 4.09744 9.16192 4.09744 18.3338L4.09744 19.9588 4.09744 20.6068C4.09744 29.7787 11.6044 37.2857 20.7763 37.2857Z" fill="#9B775A" transform="matrix(1.17742 0 0 1 1148 1083.16)"/><path d="M105.447 8.16498C105.447 12.0531 85.9965 20.6068 62 20.6068 38.0035 20.6068 18.5531 12.0531 18.5531 8.16498 18.5531 4.27689 37.2857 4.16723 61.2822 4.16723 85.2787 4.16723 105.447 4.27689 105.447 8.16498Z" fill="#FFFFFF" fill-opacity="0.3" transform="matrix(1.17742 0 0 1 1148 1083.16)"/></g></g><text fill="#FFFFFF" font-family="Rubik,Rubik_MSFontService,sans-serif" font-weight="700" font-size="21" direction="rtl" writing-mode="rl-tb" transform="translate(1163.28 1112)" x="115.5">שמור והמשך</text><text fill="#FFFFFF" font-family="Rubik,Rubik_MSFontService,sans-serif" font-weight="700" font-size="21" transform="translate(1278.78 1112)"> </text></g></svg>